<svg version="1.0" xmlns="http://www.w3.org/2000/svg" width="1588.000000pt" height="1123.000000pt" viewBox="0 0 1588.000000 1123.000000" preserveAspectRatio="xMidYMid meet">

<g transform="translate(0.000000,1123.000000) scale(0.100000,-0.100000)" fill="#000000" stroke="none">
<path d="M7773 9849 c-102 -16 -243 -55 -354 -98 -215 -84 -361 -198 -446
-350 -14 -25 -42 -73 -61 -106 -145 -241 -315 -661 -358 -885 -29 -150 -25
-414 9 -591 77 -399 284 -967 566 -1552 l81 -169 -164 -271 c-191 -318 -457
-783 -581 -1017 -48 -91 -126 -232 -172 -313 -47 -82 -96 -173 -110 -203 -39
-85 -30 -118 74 -266 213 -302 344 -518 464 -762 58 -116 77 -147 100 -156 49
-21 80 -2 118 71 18 35 75 132 126 214 315 514 411 669 508 825 61 96 155 250
211 342 55 92 103 168 106 168 3 0 18 -24 32 -54 37 -74 355 -627 501 -871
189 -314 402 -639 444 -678 11 -9 34 -20 51 -23 28 -6 37 -2 65 28 17 19 88
129 157 243 222 370 328 514 456 618 122 99 123 95 -93 442 -233 374 -551 918
-804 1373 l-107 193 65 142 c329 718 551 1295 611 1592 72 348 54 608 -64 922
-83 222 -265 574 -410 794 -99 151 -364 315 -614 381 -87 23 -309 32 -407 17z
m428 -198 c103 -33 278 -131 377 -211 31 -25 78 -73 104 -107 45 -60 46 -63
36 -105 -5 -24 -25 -126 -44 -227 -19 -102 -37 -188 -40 -192 -2 -4 -34 14
-69 41 -78 59 -181 109 -324 157 -97 33 -118 37 -249 41 -172 5 -254 -6 -412
-58 -121 -39 -209 -80 -297 -136 -29 -18 -54 -30 -56 -26 -16 26 -99 303 -113
375 -21 108 -20 111 91 223 69 70 95 89 185 132 194 94 368 133 575 128 125
-3 151 -7 236 -35z m-1113 -916 c134 -378 227 -590 528 -1204 107 -217 194
-398 194 -402 0 -18 -490 -849 -501 -849 -9 0 -183 381 -267 585 -198 483
-316 886 -342 1169 -27 284 30 509 245 971 l37 80 28 -105 c16 -58 51 -168 78
-245z m1826 168 c127 -276 179 -410 206 -536 35 -163 29 -405 -16 -606 -57
-253 -130 -458 -359 -1006 -157 -374 -235 -545 -390 -854 -137 -274 -403 -747
-605 -1076 -727 -1185 -873 -1422 -884 -1433 -11 -11 -23 4 -66 85 -67 125
-276 457 -386 613 -46 66 -84 124 -84 130 0 5 44 88 98 183 55 95 136 242 182
327 168 314 299 545 535 940 420 703 749 1263 1040 1770 152 265 380 702 445
853 97 227 189 530 206 675 3 34 10 62 13 62 4 0 33 -57 65 -127z m-714 -62
c100 -34 297 -135 351 -180 l32 -27 -23 -70 c-42 -127 -138 -335 -274 -593
-125 -239 -346 -635 -366 -655 -9 -8 -273 517 -409 814 -55 119 -202 472 -215
516 -5 18 6 29 76 72 102 62 180 93 328 132 107 28 125 30 260 27 132 -3 154
-7 240 -36z m421 -3233 c132 -237 517 -897 629 -1078 43 -69 114 -185 159
-258 l81 -134 -66 -71 c-113 -122 -298 -391 -443 -644 -30 -51 -56 -93 -60
-93 -11 1 -287 438 -453 720 -95 160 -396 690 -447 787 l-33 62 135 233 c132
228 318 566 353 641 10 20 21 37 25 37 4 0 58 -91 120 -202z" data-index="0" style="visibility: visible;"></path>

<path d="M5987 1326 c-96 -27 -175 -104 -218 -213 -17 -44 -23 -85 -27 -169
-6 -171 25 -277 108 -368 57 -61 111 -81 225 -81 97 0 133 12 188 63 l27 26
17 -42 c15 -40 18 -42 60 -42 l43 0 0 215 0 215 -160 0 -160 0 0 -65 0 -65 81
0 82 0 -7 -32 c-21 -104 -131 -167 -215 -123 -73 37 -112 130 -113 268 -1 192
87 310 212 282 40 -9 96 -65 105 -105 4 -17 12 -33 19 -36 6 -2 40 2 76 9 80
16 83 26 41 112 -34 68 -82 114 -147 141 -52 22 -177 27 -237 10z" data-index="2" style="visibility: hidden; opacity: 1; fill: rgb(121, 40, 202); stroke: rgb(121, 40, 202);"></path>

<path d="M5030 1313 c0 -15 237 -790 246 -804 3 -5 42 -9 88 -9 l83 0 123 393
c68 215 125 400 128 410 4 15 -4 17 -71 17 l-76 0 -9 -32 c-36 -125 -156 -504
-162 -511 -5 -6 -106 310 -162 510 l-9 32 -89 3 c-67 2 -90 0 -90 -9z" data-index="4" style="visibility: hidden;"></path>

<path d="M9350 910 l0 -410 85 0 85 0 0 159 0 159 143 4 c122 3 148 7 182 25
52 27 100 78 119 125 19 44 21 136 5 193 -15 53 -91 129 -144 144 -24 6 -129
11 -257 11 l-218 0 0 -410z m407 244 c37 -28 53 -86 33 -122 -30 -52 -61 -65
-169 -70 l-101 -5 0 113 0 112 104 -4 c87 -2 109 -7 133 -24z" data-index="6" style="visibility: hidden;"></path>
</g>
</svg>